<svg width="40" height="25" viewBox="0 0 40 25" fill="none" xmlns="http://www.w3.org/2000/svg">
<rect x="0.5" y="0.5" width="39" height="24" stroke="#0048FF"/>
<path d="M17.544 7.076H18.528V17.948H17.544V7.076ZM14.688 11.108H17.832V11.924H14.688V11.108ZM10.032 7.928H11.028V10.748H14.04V7.928H15.012V15.212H10.032V7.928ZM11.028 11.54V14.396H14.04V11.54H11.028ZM20.6271 13.088H30.4431V13.892H20.6271V13.088ZM21.8991 16.88H29.4111V17.696H21.8991V16.88ZM21.8991 14.684H22.8831V17.18H21.8991V14.684ZM21.9231 11.3H29.2911V12.08H21.9231V11.3ZM21.9231 7.484H29.2311V8.264H22.9191V11.6H21.9231V7.484ZM22.6191 9.38H28.9431V10.148H22.6191V9.38Z" fill="#0084FF"/>
</svg>
